<?xml version="1.0" encoding="UTF-8" standalone="no"?>
<svg
   viewBox="0 0 16 16"
   width="16"
   height="16"
   version="1.1"
   id="svg1"
   sodipodi:docname="icon_x_circle_red.svg"
   inkscape:version="1.4.3rc (9500139e98, 2025-12-13)"
   xmlns:inkscape="http://www.inkscape.org/namespaces/inkscape"
   xmlns:sodipodi="http://sodipodi.sourceforge.net/DTD/sodipodi-0.dtd"
   xmlns="http://www.w3.org/2000/svg"
   xmlns:svg="http://www.w3.org/2000/svg">
  <defs
     id="defs1" />
  <sodipodi:namedview
     id="namedview1"
     pagecolor="#ffffff"
     bordercolor="#000000"
     borderopacity="0.25"
     inkscape:showpageshadow="2"
     inkscape:pageopacity="0.0"
     inkscape:pagecheckerboard="0"
     inkscape:deskcolor="#d1d1d1"
     inkscape:zoom="47.5625"
     inkscape:cx="7.9894875"
     inkscape:cy="8"
     inkscape:window-width="1854"
     inkscape:window-height="1011"
     inkscape:window-x="0"
     inkscape:window-y="0"
     inkscape:window-maximized="1"
     inkscape:current-layer="svg1" />
  <path
     fill="#f00"
     d="M2.344 2.343h-.001a8 8 0 0 1 11.314 11.314A8.002 8.002 0 0 1 .234 10.089a8 8 0 0 1 2.11-7.746Zm1.06 10.253a6.5 6.5 0 1 0 9.108-9.275 6.5 6.5 0 0 0-9.108 9.275ZM6.03 4.97 8 6.94l1.97-1.97a.749.749 0 0 1 1.275.326.749.749 0 0 1-.215.734L9.06 8l1.97 1.97a.749.749 0 0 1-.326 1.275.749.749 0 0 1-.734-.215L8 9.06l-1.97 1.97a.749.749 0 0 1-1.275-.326.749.749 0 0 1 .215-.734L6.94 8 4.97 6.03a.751.751 0 0 1 .018-1.042.751.751 0 0 1 1.042-.018Z"
     id="path1"
     style="fill:#ffffff;fill-opacity:1" />
</svg>
