<?xml version="1.0" encoding="UTF-8" standalone="no"?>
<svg
   viewBox="0 0 16 16"
   width="16"
   height="16"
   version="1.1"
   id="svg1"
   sodipodi:docname="icon_check_circle_green.svg"
   inkscape:version="1.4.3rc (9500139e98, 2025-12-13)"
   xmlns:inkscape="http://www.inkscape.org/namespaces/inkscape"
   xmlns:sodipodi="http://sodipodi.sourceforge.net/DTD/sodipodi-0.dtd"
   xmlns="http://www.w3.org/2000/svg"
   xmlns:svg="http://www.w3.org/2000/svg">
  <defs
     id="defs1" />
  <sodipodi:namedview
     id="namedview1"
     pagecolor="#ffffff"
     bordercolor="#000000"
     borderopacity="0.25"
     inkscape:showpageshadow="2"
     inkscape:pageopacity="0.0"
     inkscape:pagecheckerboard="0"
     inkscape:deskcolor="#d1d1d1"
     inkscape:zoom="47.5625"
     inkscape:cx="7.9894875"
     inkscape:cy="8"
     inkscape:window-width="1854"
     inkscape:window-height="1011"
     inkscape:window-x="0"
     inkscape:window-y="0"
     inkscape:window-maximized="1"
     inkscape:current-layer="svg1" />
  <path
     fill="#080"
     d="M0 8a8 8 0 1 1 16 0A8 8 0 0 1 0 8Zm1.5 0a6.5 6.5 0 1 0 13 0 6.5 6.5 0 0 0-13 0Zm10.28-1.72-4.5 4.5a.75.75 0 0 1-1.06 0l-2-2a.751.751 0 0 1 .018-1.042.751.751 0 0 1 1.042-.018l1.47 1.47 3.97-3.97a.751.751 0 0 1 1.042.018.751.751 0 0 1 .018 1.042Z"
     id="path1"
     style="fill:#ffffff;fill-opacity:1" />
</svg>
